<?xml version="1.0" standalone="no"?>
<!DOCTYPE svg PUBLIC "-//W3C//DTD SVG 20010904//EN"
 "http://www.w3.org/TR/2001/REC-SVG-20010904/DTD/svg10.dtd">
<svg version="1.0" xmlns="http://www.w3.org/2000/svg"
 width="512.000000pt" height="512.000000pt" viewBox="0 0 512.000000 512.000000"
 preserveAspectRatio="xMidYMid meet">

<g transform="translate(0.000000,512.000000) scale(0.100000,-0.100000)"
fill="#000000" stroke="none">
<path d="M2808 3314 c-543 -98 -896 -629 -783 -1175 67 -321 306 -596 619
-714 186 -70 405 -80 601 -28 74 19 228 90 290 133 l47 32 252 -250 c138 -138
264 -256 281 -262 94 -36 195 57 171 157 -5 18 -96 117 -262 283 l-255 256 45
69 c184 279 205 669 53 970 -93 186 -254 347 -437 440 -182 92 -418 126 -622
89z m366 -270 c134 -36 286 -135 372 -242 53 -66 125 -212 145 -292 23 -91 18
-271 -10 -360 -63 -204 -201 -367 -384 -454 -209 -99 -439 -93 -651 17 -122
62 -238 181 -299 307 -26 52 -54 124 -63 160 -22 85 -21 244 0 335 66 275 300
493 584 545 66 12 235 4 306 -16z"/>
</g>
</svg>
